<svg width="22" height="23" viewBox="0 0 22 23" fill="none" xmlns="http://www.w3.org/2000/svg">
<path d="M20.9436 1.79821C20.3805 1.23653 19.6176 0.921093 18.8223 0.921093C18.027 0.921093 17.2641 1.23653 16.701 1.79821C16.6914 1.80774 16.6822 1.81762 16.6731 1.8276L11.5261 7.56265L10.6633 6.69986C10.2413 6.27791 9.66903 6.04086 9.07229 6.04086C8.47555 6.04086 7.90325 6.27791 7.48129 6.69986L0.291923 13.8892C0.151278 14.0299 0.0722656 14.2207 0.0722656 14.4196C0.0722656 14.6185 0.151278 14.8093 0.291923 14.9499L7.79192 22.4499C7.9326 22.5906 8.12337 22.6696 8.32229 22.6696C8.5212 22.6696 8.71198 22.5906 8.85265 22.4499L16.042 15.2606C16.464 14.8386 16.701 14.2663 16.701 13.6696C16.701 13.0728 16.464 12.5005 16.042 12.0786L15.1792 11.2159L20.9143 6.06878C20.9242 6.05972 20.9341 6.05047 20.9437 6.04086C21.5054 5.47778 21.8209 4.71488 21.8208 3.91952C21.8208 3.12415 21.5053 2.36127 20.9436 1.79821ZM8.32229 20.8589L6.99839 19.535L9.39227 17.1413C9.53276 17.0006 9.61164 16.8098 9.61156 16.611C9.61149 16.4122 9.53247 16.2215 9.39188 16.0809C9.25128 15.9403 9.06062 15.8613 8.86179 15.8612C8.66296 15.8612 8.47223 15.94 8.33154 16.0805L5.93766 18.4743L4.37339 16.91L6.76727 14.5163C6.90776 14.3756 6.98664 14.1848 6.98656 13.986C6.98649 13.7872 6.90747 13.5965 6.76688 13.4559C6.62628 13.3153 6.43562 13.2363 6.23679 13.2362C6.03796 13.2362 5.84723 13.315 5.70654 13.4555L3.31266 15.8493L1.88293 14.4196L6.07229 10.2303L12.5116 16.6696L8.32229 20.8589Z" fill="#005CE8"/>
</svg>
