<svg width="50" height="50" viewBox="0 0 50 50" fill="none" xmlns="http://www.w3.org/2000/svg">
<path d="M9.875 41.5C10.9318 40.3164 15.8816 34.8695 17.3321 34.8695H32.6688C34.7708 34.8695 39.0616 39.3846 40.125 40.9761M47 25C47 37.1503 37.1503 47 25 47C12.8497 47 3 37.1503 3 25C3 12.8497 12.8497 3 25 3C37.1503 3 47 12.8497 47 25ZM32.8807 17.5016C32.8807 13.3044 29.3374 9.875 25.0007 9.875C20.664 9.875 17.1206 13.3044 17.1206 17.5016C17.1206 21.6988 20.664 25.1281 25.0007 25.1281C29.3374 25.1281 32.8807 21.6988 32.8807 17.5016Z" stroke="#2E65F3" stroke-width="5"/>
</svg>
