<svg width="20" height="18" viewBox="0 0 20 18" fill="none" xmlns="http://www.w3.org/2000/svg">
<path d="M1 15.3158C1 12.5307 3.25306 10.273 7.85714 10.273C12.4612 10.273 14.7143 12.5307 14.7143 15.3158C14.7143 15.7588 14.4013 16.118 14.0151 16.118H1.69916C1.31302 16.118 1 15.7588 1 15.3158Z" fill="black"/>
<path d="M10.4286 4.61063C10.4286 6.07725 9.2773 7.26618 7.85714 7.26618C6.43698 7.26618 5.28571 6.07725 5.28571 4.61063C5.28571 3.14401 6.43698 1.95508 7.85714 1.95508C9.2773 1.95508 10.4286 3.14401 10.4286 4.61063Z" fill="black"/>
<path d="M17.3609 9.87689C16.9236 9.5395 16.2957 9.62046 15.9583 10.0577C15.6209 10.495 15.7019 11.1229 16.1391 11.4603L17.3609 9.87689ZM12.8622 6.05243C12.388 6.33567 12.2333 6.94964 12.5165 7.42376C12.7998 7.89789 13.4137 8.05263 13.8878 7.76939L12.8622 6.05243ZM13.8878 1.45186C13.4137 1.16863 12.7998 1.32337 12.5165 1.79749C12.2333 2.27162 12.388 2.88558 12.8622 3.16882L13.8878 1.45186ZM17.875 15.118C17.3227 15.118 16.875 15.5657 16.875 16.118C16.875 16.6703 17.3227 17.118 17.875 17.118V15.118ZM14.0151 15.118H1.69916V17.118H14.0151V15.118ZM1.69916 15.118C1.83058 15.118 1.91986 15.1815 1.95866 15.226C1.99572 15.2686 2 15.3033 2 15.3158H0C0 16.1775 0.635996 17.118 1.69916 17.118V15.118ZM13.7143 15.3158C13.7143 15.3033 13.7186 15.2686 13.7556 15.226C13.7944 15.1815 13.8837 15.118 14.0151 15.118V17.118C15.0783 17.118 15.7143 16.1775 15.7143 15.3158H13.7143ZM7.85714 11.273C10.0057 11.273 11.4757 11.8002 12.3869 12.5303C13.2788 13.2451 13.7143 14.2136 13.7143 15.3158H15.7143C15.7143 13.6329 15.0232 12.08 13.6376 10.9696C12.2712 9.87469 10.3126 9.27299 7.85714 9.27299V11.273ZM7.85714 9.27299C5.40166 9.27299 3.44306 9.87469 2.0767 10.9696C0.691046 12.08 0 13.6329 0 15.3158H2C2 14.2136 2.43549 13.2451 3.32738 12.5303C4.23857 11.8002 5.70854 11.273 7.85714 11.273V9.27299ZM9.42857 4.61063C9.42857 5.55555 8.69492 6.26618 7.85714 6.26618V8.26618C9.85969 8.26618 11.4286 6.59895 11.4286 4.61063H9.42857ZM7.85714 6.26618C7.01937 6.26618 6.28571 5.55555 6.28571 4.61063H4.28571C4.28571 6.59895 5.8546 8.26618 7.85714 8.26618V6.26618ZM6.28571 4.61063C6.28571 3.66571 7.01937 2.95508 7.85714 2.95508V0.955078C5.8546 0.955078 4.28571 2.62231 4.28571 4.61063H6.28571ZM7.85714 2.95508C8.69492 2.95508 9.42857 3.66571 9.42857 4.61063H11.4286C11.4286 2.62231 9.85969 0.955078 7.85714 0.955078V2.95508ZM18 15.3158C18 15.3033 18.0043 15.2686 18.0413 15.226C18.0801 15.1815 18.1694 15.118 18.3008 15.118V17.118C19.364 17.118 20 16.1775 20 15.3158H18ZM16.1391 11.4603C16.559 11.7843 17.0377 12.4346 17.4177 13.2325C17.7971 14.0294 18 14.8093 18 15.3158H20C20 14.4 19.672 13.3147 19.2234 12.3727C18.7754 11.4319 18.1291 10.4696 17.3609 9.87689L16.1391 11.4603ZM13.6607 4.61063C13.6607 5.23776 13.3319 5.77179 12.8622 6.05243L13.8878 7.76939C14.9553 7.13172 15.6607 5.94935 15.6607 4.61063H13.6607ZM12.8622 3.16882C13.3319 3.44947 13.6607 3.9835 13.6607 4.61063H15.6607C15.6607 3.27191 14.9553 2.08954 13.8878 1.45186L12.8622 3.16882ZM18.3008 15.118H17.875V17.118H18.3008V15.118Z" fill="black"/>
</svg>
