<svg width="21" height="20" viewBox="0 0 21 20" fill="none" xmlns="http://www.w3.org/2000/svg">
<path fill-rule="evenodd" clip-rule="evenodd" d="M11.9229 2.50207C11.4934 0.781332 8.98428 0.781332 8.5548 2.50207C8.49067 2.76064 8.3649 3.00078 8.18772 3.20295C8.01054 3.40513 7.78695 3.56362 7.53515 3.66552C7.28335 3.76743 7.01045 3.80988 6.73867 3.78942C6.46688 3.76895 6.20389 3.68615 5.97108 3.54775C4.42041 2.62561 2.64594 4.35738 3.59081 5.87075C4.20114 6.84804 3.65976 8.12315 2.52049 8.3934C0.756193 8.81145 0.756193 11.2613 2.52049 11.6782C2.7855 11.7409 3.0316 11.8638 3.23876 12.0368C3.44592 12.2099 3.60826 12.4282 3.71259 12.6741C3.81691 12.92 3.86025 13.1864 3.83909 13.4517C3.81793 13.717 3.73286 13.9737 3.59081 14.2009C2.64594 15.7143 4.42041 17.446 5.97108 16.5239C6.20384 16.3853 6.46686 16.3022 6.73872 16.2816C7.01058 16.2609 7.28359 16.3032 7.53553 16.4051C7.78747 16.5069 8.0112 16.6653 8.18852 16.8675C8.36584 17.0696 8.49172 17.3098 8.55592 17.5685C8.98428 19.2903 11.4945 19.2903 11.9218 17.5685C11.9862 17.31 12.1122 17.0699 12.2895 16.8679C12.4669 16.6659 12.6906 16.5075 12.9425 16.4058C13.1943 16.304 13.4672 16.2616 13.739 16.2822C14.0108 16.3027 14.2738 16.3855 14.5066 16.5239C16.0573 17.446 17.8317 15.7143 16.8869 14.2009C16.7451 13.9737 16.6602 13.717 16.6392 13.4518C16.6181 13.1865 16.6615 12.9202 16.7658 12.6744C16.8701 12.4286 17.0324 12.2103 17.2394 12.0372C17.4464 11.8641 17.6923 11.7411 17.9572 11.6782C19.7215 11.2602 19.7215 8.81035 17.9572 8.3934C17.6922 8.33074 17.4461 8.20788 17.2389 8.03483C17.0318 7.86178 16.8694 7.64343 16.7651 7.39755C16.6608 7.15168 16.6174 6.88523 16.6386 6.61992C16.6598 6.3546 16.7448 6.09791 16.8869 5.87075C17.8317 4.35738 16.0573 2.62561 14.5066 3.54775C14.2738 3.68638 14.0108 3.7694 13.739 3.79006C13.4671 3.81071 13.1941 3.7684 12.9422 3.66659C12.6902 3.56478 12.4665 3.40634 12.2892 3.20417C12.1118 3.002 11.986 2.76181 11.9218 2.50318L11.9229 2.50207Z" stroke="#2E65F3" stroke-width="2"/>
<path d="M12.2481 10.0357C12.2481 11.1187 11.3485 11.9966 10.2388 11.9966C9.12917 11.9966 8.2296 11.1187 8.2296 10.0357C8.2296 8.9527 9.12917 8.07476 10.2388 8.07476C11.3485 8.07476 12.2481 8.9527 12.2481 10.0357Z" stroke="#2E65F3" stroke-width="2"/>
</svg>
