<svg width="23" height="23" viewBox="0 0 23 23" fill="none" xmlns="http://www.w3.org/2000/svg">
<path d="M9.87741 10.1165V15.6316M13.5541 10.1165V15.6316M4.3623 6.4398H19.0693M18.1501 6.4398L17.3531 17.6005C17.3201 18.0643 17.1126 18.4984 16.7723 18.8153C16.4321 19.1322 15.9843 19.3084 15.5194 19.3084H7.91219C7.44722 19.3084 6.99951 19.1322 6.65924 18.8153C6.31898 18.4984 6.11144 18.0643 6.07842 17.6005L5.28149 6.4398H18.1501ZM14.4733 6.4398V3.68225C14.4733 3.43846 14.3765 3.20466 14.2041 3.03228C14.0317 2.8599 13.7979 2.76306 13.5541 2.76306H9.87741C9.63363 2.76306 9.39983 2.8599 9.22745 3.03228C9.05507 3.20466 8.95823 3.43846 8.95823 3.68225V6.4398H14.4733Z" stroke="#F32D2D" stroke-width="1.4" stroke-linecap="round" stroke-linejoin="round"/>
</svg>
